<svg enable-background="new 0 0 512 512" viewBox="0 0 512 512" xmlns="http://www.w3.org/2000/svg">
  <path d="m256 0c-105.888 0-192 86.112-192 192 0 133.088 173.312 307.936 180.672 315.328 3.136 3.104 7.232 4.672 11.328 4.672s8.192-1.568 11.328-4.672c7.36-7.392 180.672-182.24 180.672-315.328 0-105.888-86.112-192-192-192z" fill="#2196f3"/>
  <path d="m346.016 163.488-80-64c-5.856-4.672-14.144-4.672-20 0l-80 64c-5.312 4.256-7.36 11.392-5.12 17.824s8.32 10.688 15.104 10.688h16v80c0 8.832 7.168 16 16 16h96c8.832 0 16-7.168 16-16v-80h16c6.784 0 12.832-4.288 15.104-10.688s.224-13.568-5.088-17.824z" fill="#fafafa"/>
</svg>
