<svg enable-background="new 0 0 118.1 118.1" height="118.1" viewBox="0 0 118.1 118.1" width="118.1" xmlns="http://www.w3.org/2000/svg">
    <defs>
      <linearGradient id="gradient" x1="0%" y1="0%" x2="100%" y2="100%">
        <stop offset="0%" style="stop-color:#66a6ff;stop-opacity:1" />
        <stop offset="100%" style="stop-color:#5ee7df;stop-opacity:1" />
      </linearGradient>
    </defs>
    <g stroke="#3F7FEF" stroke-width="4">
        <path d="m59 0c-24.6 0-44.5 19.9-44.5 44.5 0 12.8 6.4 24.4 12.7 35.1 7.7 13.301 16.9 25.7 27.6 36.7 2.3 2.399 6.101 2.399 8.5 0 9.4-9.3 17.7-19.8 24.7-31 7.5-12.101 15.6-26.101 15.6-40.8-.1-24.5-20-44.5-44.6-44.5zm0 70.3c-14.9 0-27-12.1-27-27s12.1-27 27-27 27 12 27 27-12.1 27-27 27z" fill="url(#gradient)"/>
    </g>
</svg>