<svg xmlns="http://www.w3.org/2000/svg">
    <defs>
        <style>
            g {
                display: none;
            }
            g:target {
                display: inline;
            }
        </style>
    </defs>
    <g id="menu">
        <svg xmlns="http://www.w3.org/2000/svg" viewBox="0 -53 384 384" >
            <path d="m368 154.667969h-352c-8.832031 0-16-7.167969-16-16s7.167969-16 16-16h352c8.832031 0 16 7.167969 16 16s-7.167969 16-16 16zm0 0"/>
            <path d="m368 32h-352c-8.832031 0-16-7.167969-16-16s7.167969-16 16-16h352c8.832031 0 16 7.167969 16 16s-7.167969 16-16 16zm0 0"/>
            <path d="m368 277.332031h-352c-8.832031 0-16-7.167969-16-16s7.167969-16 16-16h352c8.832031 0 16 7.167969 16 16s-7.167969 16-16 16zm0 0"/>
        </svg>
    </g>
    <g id="arrow-down">
        <svg xmlns="http://www.w3.org/2000/svg" viewBox="0 0 123.959 123.958">
            <path d="m117.979 28.017h-112c-5.3 0-8 6.4-4.2 10.2l56 56c2.3 2.3 6.1 2.3 8.401 0l56-56c3.799-3.8 1.099-10.2-4.201-10.2z"/>
        </svg>
    </g>
</svg>
