<svg xmlns="http://www.w3.org/2000/svg">
    <defs>
        <style>
            g {
                display: none;
            }
            g:target {
                display: inline;
            }
        </style>
    </defs>
    <g id="circle">
        <svg class="spinner" viewBox="0 0 50 50">
            <circle class="path" cx="25" cy="25" r="20" fill="none" stroke-width="3" stroke-linecap="round"></circle>
        </svg>
    </g>
    <g id="menu">
        <svg xmlns="http://www.w3.org/2000/svg" viewBox="0 -53 384 384" >
            <path d="m368 154.667969h-352c-8.832031 0-16-7.167969-16-16s7.167969-16 16-16h352c8.832031 0 16 7.167969 16 16s-7.167969 16-16 16zm0 0"/>
            <path d="m368 32h-352c-8.832031 0-16-7.167969-16-16s7.167969-16 16-16h352c8.832031 0 16 7.167969 16 16s-7.167969 16-16 16zm0 0"/>
            <path d="m368 277.332031h-352c-8.832031 0-16-7.167969-16-16s7.167969-16 16-16h352c8.832031 0 16 7.167969 16 16s-7.167969 16-16 16zm0 0"/>
        </svg>
    </g>
    <g id="arrow-down">
        <svg viewBox="0 0 444.819 444.819" xmlns="http://www.w3.org/2000/svg">
            <path d="m434.252 114.203-21.409-21.416c-7.419-7.04-16.084-10.561-25.975-10.561-10.095 0-18.657 3.521-25.7 10.561l-138.758 138.762-138.757-138.758c-7.042-7.04-15.606-10.561-25.697-10.561-9.896 0-18.559 3.521-25.979 10.561l-21.128 21.416c-7.234 7.229-10.849 15.892-10.849 25.981 0 10.277 3.619 18.842 10.848 25.693l185.864 185.865c6.855 7.23 15.416 10.848 25.697 10.848 10.088 0 18.75-3.617 25.977-10.848l185.865-185.865c7.043-7.044 10.567-15.608 10.567-25.693.001-9.901-3.523-18.559-10.566-25.985z"/>
        </svg>
    </g>
    <g id="work">
        <svg viewBox="0 0 448 448" xmlns="http://www.w3.org/2000/svg">
            <path d="m416 96h-96v-48c0-8.832-7.168-16-16-16h-160c-8.832 0-16 7.168-16 16v48h-96c-17.664 0-32 14.336-32 32v256c0 17.664 14.336 32 32 32h384c17.664 0 32-14.336 32-32v-256c0-17.664-14.336-32-32-32zm-128 0h-128v-32h128z"/>
        </svg>
    </g>
    <g id="house">
        <svg viewBox="0 0 441.556 441.555" xmlns="http://www.w3.org/2000/svg">
            <path d="m405.584 262.377h-26.899v124.201c0 22-17.7 39.799-39.801 39.799h-236.3c-22 0-39.8-17.699-39.8-39.799v-124.201h-26.9c-30 0-50.2-36.699-23.3-64.299l159.2-162.1c13.5-14.1 31.2-20.8 49-20.8s35.5 6.7 49.6 20.8l36.101 36.7v-32.4c0-14.1 11.6-25.1 25.7-25.1h21.399c13.5 0 25.101 11 25.101 25.1v106.5l50.199 51.4c26.801 27.5 7.301 64.199-23.3 64.199z"/>
        </svg>
    </g>
</svg>
