<svg xmlns="http://www.w3.org/2000/svg">
    <defs>
        <style>
            g {
                display: none;
            }
            g:target {
                display: inline;
            }
        </style>
    </defs>
    <g id="menu">
        <svg xmlns="http://www.w3.org/2000/svg" viewBox="0 -53 384 384" >
            <path d="m368 154.667969h-352c-8.832031 0-16-7.167969-16-16s7.167969-16 16-16h352c8.832031 0 16 7.167969 16 16s-7.167969 16-16 16zm0 0"/>
            <path d="m368 32h-352c-8.832031 0-16-7.167969-16-16s7.167969-16 16-16h352c8.832031 0 16 7.167969 16 16s-7.167969 16-16 16zm0 0"/>
            <path d="m368 277.332031h-352c-8.832031 0-16-7.167969-16-16s7.167969-16 16-16h352c8.832031 0 16 7.167969 16 16s-7.167969 16-16 16zm0 0"/>
        </svg>
    </g>
    <g id="arrow-down">
        <svg xmlns="http://www.w3.org/2000/svg" viewBox="0 0 123.959 123.958">
            <path d="m117.979 28.017h-112c-5.3 0-8 6.4-4.2 10.2l56 56c2.3 2.3 6.1 2.3 8.401 0l56-56c3.799-3.8 1.099-10.2-4.201-10.2z"/>
        </svg>
    </g>
    <g id="work">
        <svg viewBox="0 0 448 448" xmlns="http://www.w3.org/2000/svg">
            <path d="m416 96h-96v-48c0-8.832-7.168-16-16-16h-160c-8.832 0-16 7.168-16 16v48h-96c-17.664 0-32 14.336-32 32v256c0 17.664 14.336 32 32 32h384c17.664 0 32-14.336 32-32v-256c0-17.664-14.336-32-32-32zm-128 0h-128v-32h128z"/>
        </svg>
    </g>
    <g id="house">
        <svg viewBox="0 0 441.556 441.555" xmlns="http://www.w3.org/2000/svg">
            <path d="m405.584 262.377h-26.899v124.201c0 22-17.7 39.799-39.801 39.799h-236.3c-22 0-39.8-17.699-39.8-39.799v-124.201h-26.9c-30 0-50.2-36.699-23.3-64.299l159.2-162.1c13.5-14.1 31.2-20.8 49-20.8s35.5 6.7 49.6 20.8l36.101 36.7v-32.4c0-14.1 11.6-25.1 25.7-25.1h21.399c13.5 0 25.101 11 25.101 25.1v106.5l50.199 51.4c26.801 27.5 7.301 64.199-23.3 64.199z"/>
        </svg>
    </g>
</svg>
