<svg version="1.1" id="Слой_1" xmlns="http://www.w3.org/2000/svg" x="0" y="0" viewBox="0 0 649.9 403" xml:space="preserve"><style>.st0{fill:#fff}.st4{fill:#3e4042}.st5{fill:#47494b}.st6{opacity:.3;fill:#d1ecfa}.st7{fill:#fab886}.st8{fill:#fcd5b7}.st10{fill:#323436}.st15{fill:#795c4d}.st16{opacity:.75;fill:#d1ecfa}.st17{opacity:.5;fill:#fff}.st22{fill:#d1ecfa}.st23{fill:#e0f2fc}</style><path class="st0" d="M0 0h621v403H0z"/><circle cx="332.5" cy="96.9" r="40.6" opacity=".7" fill="#fede6e"/><linearGradient id="SVGID_1_" gradientUnits="userSpaceOnUse" x1="327.4" y1="240.7" x2="327.4" y2="77.6"><stop offset="0" stop-color="#fff"/><stop offset="1" stop-color="#e8f6fe"/></linearGradient><path d="M649.9 240.7L76.5 227.2s-69.6-9-70.7-19.3C-6.8 94.1 105.4 190.2 120 174.5c26.9-29.1 64.3-63.7 106-85.7 37.7-19.9 51.8-7 51.8-7s47.4 38.2 53 41.5c5.6 3.3 17.3-8.4 40-18.2 16.5-7.1 31.9-12.6 40.4-5.2 8.5 7.4 27.4 46.3 35.2 50.8 7.8 4.4 43-21.5 43-21.5s4.8-5.6 12.6.7 116.7 89.7 129 93.4" fill="url(#SVGID_1_)"/><linearGradient id="SVGID_2_" gradientUnits="userSpaceOnUse" x1="310.5" y1="401.3" x2="310.5" y2="215.3"><stop offset="0" stop-color="#fff"/><stop offset="1" stop-color="#e8f6fe"/></linearGradient><path d="M621 224.7s-88.4 2.9-115.7 2.9c-21.5 0-44.2-15.2-63.8-11.7-13.8 2.5-34.3 9.5-37.6 10.3-26 6.4-42.1-1-55.7-1.5-28.3-1.1-75.4 14.1-114 0-10-3.6-31-4.6-41.6-4.6-18.3 0-74 4.6-74 4.6H0v176.6h621V224.7z" fill="url(#SVGID_2_)"/><path class="st4" d="M328.9 155h-31.1s-4.3.1-4.2 5.2c.2 7.1-1.7 66.9-1.7 66.9s-.3 5.6 3.3 6.4c3.6.8 31 1.4 36.4-.7 1.8-.7 1.2-4.3 1.6-6.2.4-1.9 3.2-63.7 3.2-63.7s-2.5-7.9-7.5-7.9z"/><path class="st5" d="M320.7 234c5.1.2 5.7-.3 10.9.2 4.3 0 4.8-2.5 5-3.8.4-1.9 0-67.6 0-67.6s.6-4.5-4.4-4.5h-31.1s-4.3 0-4.2 5.2c.2 7.2-1.7 67.5-1.7 67.5l.2 2.2c8.3 1.3 16.7.6 25.3.8z"/><ellipse class="st6" cx="317.9" cy="327.7" rx="38" ry="5.7"/><path class="st7" d="M257.6 171.1s.7 4 1.6 5.1c.8 1.1 3.2 2.6 5.7 3.4s6.5 1.5 6.5 1.5l4.8 7.4c1.9 2.7 9.5 14.9 10.8 16.2 1.4 1.3 3.1 4.4 5.8 2.6 2.8-1.8 7.8-19.9 8.5-23.3.7-3.4-9.4-2.3-9.4-2.3l-2.8 14.3-14-18.2s-.6-1-1.3-2.9-.2-3.2-.9-3.9c-.7-.6-2.2-3.8-2.9-3.6-.6.2-.9 1-.4 1.7s1.4 4.9.6 5c-.7.1-5.6-.6-6.9-.6-1.1-.1-5.2-5.1-5.7-2.4z"/><path class="st8" d="M295.1 181.6c.6 2.4 1 4.9.9 7.5-.1 2.7 0 5.8-2.1 7.8-1.7 1.5-3.8.7-4.7-.9v.1l-.4-.5c-.6-.1-5.8-6.6-8.1-9.2-1.8-2-3.7-4.4-5.3-6.5-.7-.9-1.8-2.8-3.7-2.7-3.9 1.7-8.7.3-11.7-2.7-.5-.1-1-.2-1.4-.1l-.1.1c.2.7.5 1.4.8 1.8a13 13 0 005.7 3.4c2.5.8 6.5 1.5 6.5 1.5l4.8 7.4c1.9 2.7 9.5 14.9 10.8 16.2 1.4 1.3 3.1 4.4 5.8 2.6 2.8-1.8 7.8-19.9 8.5-23.3.4-2.2-3.4-2.6-6.3-2.5z"/><path class="st7" d="M376 171.1s-.7 4-1.6 5.1c-.8 1.1-3.1 2.6-5.6 3.4-2.5.8-6.4 1.5-6.4 1.5s-2.9 4.7-4.8 7.4c-1.8 2.7-9.4 14.9-10.7 16.2s-3 4.4-5.8 2.6c-2.8-1.8-8.8-18.6-9.6-22-.7-3.4 8.1-5.9 8.1-5.9l5 16.7 13.9-18.2s.6-1 1.3-2.9.2-3.2.9-3.9 2.2-3.8 2.8-3.6c.6.2.9 1 .4 1.7s-1.4 4.9-.6 5c.7.1 5.5-.6 6.8-.6 1.3-.2 5.3-5.2 5.9-2.5z"/><path class="st8" d="M375 172.7c-1.7 1.5-3.2 3.3-5.6 3.7-2 .4-5.2-.8-7.1 0-1.2.5-.7.4-1.4 1.6l-.6 1.7c-2.9 4.5-7.6 8.3-10.7 12.7-.9 1.3-2.8 3-4.7 3.7l-5-16.7s-8.8 2.5-8.1 5.9c.7 3.4 6.8 20.3 9.6 22 2.8 1.8 4.4-1.3 5.8-2.6 1.4-1.3 8.9-13.5 10.7-16.2l4.8-7.4s3.9-.6 6.4-1.5c2.5-.8 4.8-2.3 5.6-3.4.4-.5.8-1.7 1.1-2.8-.5-.3-.7-.5-.8-.7zM305 164l6.7-1.3s.1-4.4-.6-6.7c-.8-2.4 11.4-2.5 10.6-.2a29 29 0 000 6.7l5.5 1.8s-9.6 8.9-13.1 7.3a43.5 43.5 0 01-9.1-7.6z"/><path class="st8" d="M308.1 133.2s-1.7 5.1-1.4 6.8c.3 1.7.1 1.9.1 1.9s-2.1-2-2.6-.5.5 4.9 2.2 4.8c1.7-.1.8-.1.8-.1s1.4 7.3 3.7 10.2c1.2 1.5 1.8 2.2 3.5 2.1h5.4s1.8-.3 3.5-3.2c1.7-3 3-8.3 3.4-10.7.4-2.4 1.3-9-.6-9.7-1.8-.7-5.7 1.5-5.7 1.5s-8.4-4.2-12.3-3.1z"/><path d="M306.8 141.9c-2.1-1.5-1.8-1.9-1.8-1.9s-2.8-7.5-1.9-9.6c1.5-3.4 3.9-3.5 3.9-3.5s.7-3.6 5.1-4c2.9-.3 9.2.5 13.2 3.5 2.2 1.7 3.4 3.4 2.5 6.5-.4 1.6.2 2.1.2 2.1s1.5 4.2.5 6.1l-1.8 3.2s1.3-7.3-1-8.6c-1.6-.9-1.9 3.5-5.4 2.1l-8.8-3.5c-2-.8-3.5 1.1-4.2 2.1-.6.8-.6 4.1-.6 4.1l.1 1.4z" fill="#8d6b5a"/><path class="st10" d="M298.9 320.3l-.9 5.2c-.4 1.9 5.6 1.9 5.6 1.9s10.4 2.4 13.8.6c.6-.3 1.1-2.3.1-3.2-2.7-2.5-6.3-1.9-6.3-1.9l-4.8-1.4-7.5-1.2z"/><path class="st4" d="M317 328.1c.3-1.2.4-3.3-3.4-4.5-1.9-.5-2-.6-2.5-.8-1.5-.5-3.1-1-3.4-1.7l-1.1-1.1-6.8.2c-.2 2.1.5 4.1.1 6.2l-.1.5c1.6.4 3.8.5 3.8.5s9.1 2.3 13.4.7z"/><path class="st10" d="M321.3 320.3l-.9 5.2c-.4 1.9 5.6 1.9 5.6 1.9s10.4 2.4 13.8.6c.6-.3 1.1-2.3.1-3.2-2.7-2.5-6.3-1.9-6.3-1.9l-4.3-1.9-8-.7z"/><path class="st4" d="M339.2 328.1c.3-1.2.4-3.3-3.4-4.5-1.9-.5-2-.5-2.5-.8-.8-.6-2.4-1.5-2.7-2.3l-.4-.3H322c-.2 2.1.5 4.1.1 6.2l-.1.5c1.6.4 3.8.5 3.8.5s9 2.3 13.4.7z"/><path d="M300.1 229.8s-1 11-.7 16.6c.3 5.6 3.1 26.5 3.1 32.3s-5.2 40.4-3.8 41.8c1.4 1.4 5.4.9 7.3.9s8.2-38.6 8.2-38.6 2.1-16.8 1.3-26.6l-.3-5.9c-.1-1 .4-1.6 1 1.1.2 1 4.9 19.3 5.6 27.9 1.4 18-.3 41.5-.3 41.5s0 .6 4 .9c3.7.3 4.6-1.2 4.6-1.2s4.7-24.3 4.1-41.1c-.3-6.5-2-20-2.9-31.3-1-11.6 1.4-21.4-1.9-21.7l-29.3 3.4z" fill="#234868"/><path d="M334.1 279.2c-.3-6.5-2-20-2.9-31.3-1-11.6 1.4-21.4-1.9-21.7l-20.9 2.6c0 .2-1.6.6-1.6.8-1.3 8.2-2.7 14.3-2.2 22.8.5 7.4 2.8 15.8 2.1 23.1-1.4 15.3-3.3 30.7-5 46 1.6.1 3.3-.1 4.4-.1 1.9 0 8.2-38.6 8.2-38.6s2.1-16.8 1.3-26.6l-.3-5.9c0-.6 3.7-5 4.2.6 1.2 14.3 7.1 22.9 5.5 37.8-.8 7.8.7 17.4-.1 25.2-.2 2.3-1 5.6-1.3 7.7 5.9.7 6.6-1.3 6.6-1.3s4.6-24.4 3.9-41.1z" fill="#30638e"/><path d="M310.6 162.9s-10.2.6-12.6 3.5c-2.2 2.7-6.7 13-6.7 15.3 0 1.8 9.4 4.7 9.4 4.7l-1.6 30c0 2.8-1.9 13.1.2 13.7l.7.2c4.9 1 23.8 3.4 32.5-.3 1.1-.5-.9-43.8-.9-43.8s7.8-2.7 8.7-5.2c.7-2.1-3.6-12.6-7.9-15.8-3-2.2-9.7-2.2-9.7-2.2s-.2 4.5-5.9 4.5c-6.7 0-6.2-4.6-6.2-4.6z" fill="#f85a3e"/><path d="M339.5 178.7c-2-4.5-4.2-11-8.8-12.1-2.9-.7-4-1.1-7.1-1.1-.6 1.8-3.3 3-5 3.2-1.6.1-4.7 1-7.9-2.1l-.8.1c-6.3.1-7.5 3.9-9.1 9.2l-2.8 9.5 2.8 1c2.2-.1 3.2 2.4 3.5 5.3.8 7-1.5 32.7-.4 39.2 7.5 1.1 21.7 2.1 28.9-.9 1.1-.5-.9-43.8-.9-43.8s7.8-2.7 8.7-5.2l-1.1-2.3z" fill="#f9765f"/><path class="st0" d="M228.3 93.1s24.4-15.4 36-13c15.4 3.1 27.8 17.8 34.8 23.8 1.1 1-13.1 4.4-19.6-1.3-4.4-3.9-1.7-9.5-12.4-5.1-1.3.5-7.7 8.6-11.8.7-1.9-3.7-1.8-7.1-10.3-4.3-14.4 4.9-16.7-.8-16.7-.8zM383.7 105.2s13.5-8.7 21.6-5.1c5 2.2 11.3 12.4 9.8 15-1.5 2.6-11.6-3.5-13.4-4s-1.1-6-7.4-1.9c-6.3 4.1-5.6-.6-7-1.6-1.9-1.2-9.2 4-3.6-2.4z"/><path class="st15" d="M305.8 140.5c-1.7-4.7-3.5-10.7.5-13.5-1.1.2-3.2 1-3.5 4.1-.4 4.1 1.3 10.3 1.3 10.3s.9-.5 1.7 0c.1.1.1 0 .1-.2l-.1-.7zM307 127s4.7-1.9 9.4 2c2.2 1.8-1.1-4.9-4.7-6 0 0-3.7-.9-4.7 4z"/><path class="st10" d="M317 142c0-.6-.4-1-1-1h-6c-.6 0-1 .4-1 1v3c0 .6.4 1 1 1h6c.6 0 1-.4 1-1v-3zm-1.3 3h-5.5c-.7 0-.5-1.4-.5-2.1 0-.6.6-.9 1.3-.9h4c.7 0 1.2.5 1.2.8 0 1.4.2 2.2-.5 2.2zM326 142c0-.6-.4-1-1-1h-6c-.6 0-1 .4-1 1v3c0 .6.4 1 1 1h6c.6 0 1-.4 1-1v-3zm-1.3 3h-5.2c-.7 0-.6-1.4-.6-2.1 0-.6.3-.9 1-.9h4c.7 0 1.2.4 1.2.7.1 1.4.3 2.3-.4 2.3z"/><path class="st7" d="M311.3 156.9s1.5 1.9 6.2 1.7c2.3-.1 3.9-1.1 3.9-1.1l.3 5 1.1.4s.2 3.1-3.3 4.1c-2 .6-5.3.5-6.8-.5s3.3-.1 3.3-2.6c.2-2.4-4.7-7-4.7-7z"/><path class="st10" d="M313.7 143.7h-1.3a.4.4 0 01-.4-.4v-.5c0-.2.2-.4.4-.4h1.3c.2 0 .4.2.4.4v.5c0 .2-.2.4-.4.4zM323.1 143.7h-1.3a.4.4 0 01-.4-.4v-.5c0-.2.2-.4.4-.4h1.3c.2 0 .4.2.4.4v.5c.1.2-.1.4-.4.4zM306.8 141.9l2.3.9v-1.1l-2.5-.5zM327 142l.1-.6-1.2.2v1zM316.4 141.6h1.9v.9h-1.9z"/><path class="st5" d="M305.5 163.5c.1 17.6-4.8 22.9-4.8 22.9l-.2 3.5s8.8-5.3 8-26.8c0-.8-3-.4-3 .4zM327.4 163.5c-.1 17.6 4.2 22.7 4.2 22.7l.4 4.4s-8.5-5.9-7.7-27.5c.1-.8 3.1-.4 3.1.4z"/><path class="st16" d="M373 287h22.3s4.5-8.9-1.3-10.8c-5.8-1.8-22.5 5.8-21 10.8z"/><path class="st16" d="M406.7 282.8s-8.9-4.4-9.8-1.3c-.9 3.2-1.8 5.3-1.8 5.3l11.1.4c.1 0 4.2-.7.5-4.4z"/><path class="st17" d="M395.3 277.8c-.5 1.5-1.3 2.9-2.7 4.3a15.8 15.8 0 01-9.2 4.5c-3.4.4-6.7-.8-10.1-.9-.5.8-.7 1.6-.4 2.3h22.3c.1-.1 3.8-7.5.1-10.2z"/><path class="st17" d="M402.6 286c-3.2 0-4.8-2.2-5-4.6-.4.2-.6.5-.7.9-.7 3.2-1.6 5.5-1.6 5.5h11.1s3.6-1.1.8-4.3a5.2 5.2 0 01-4.6 2.5z"/><linearGradient id="SVGID_3_" gradientUnits="userSpaceOnUse" x1="1" y1="201.5" x2="207" y2="201.5"><stop offset="0" stop-color="#fff"/><stop offset="1" stop-color="#fff" stop-opacity="0"/></linearGradient><path fill="url(#SVGID_3_)" d="M1 0h206v403H1z"/><linearGradient id="SVGID_4_" gradientUnits="userSpaceOnUse" x1="-474" y1="201.5" x2="-268" y2="201.5" gradientTransform="matrix(-1 0 0 1 148 0)"><stop offset="0" stop-color="#fff"/><stop offset="1" stop-color="#fff" stop-opacity="0"/></linearGradient><path fill="url(#SVGID_4_)" d="M416 403h206V0H416z"/><path d="M467 357c0 6.1-23.5 11-52.4 11s-52.4-4.9-52.4-11 23.5-11 52.4-11 52.4 5 52.4 11z" opacity=".3" fill="#d1ecfa"/><g opacity=".8"><path class="st22" d="M414.5 362.8a25.3 25.3 0 01-25.3-25.3h1.2a24.1 24.1 0 0048.2 0h1.2c0 14-11.4 25.3-25.3 25.3z"/><path class="st22" d="M419.1 360.3c-7.7 0-15.3-3.5-20.3-10.1l1-.7a24.2 24.2 0 0033.7 4.9 24.2 24.2 0 004.9-33.7l1-.7c8.4 11.2 6.1 27-5.1 35.4a26.7 26.7 0 01-15.2 4.9z"/><path class="st22" d="M399.7 345.6a25.3 25.3 0 0143.1-26.5l-1 .6a24.1 24.1 0 00-33.1-7.9 24.1 24.1 0 00-7.9 33.1l-1.1.7z"/><path class="st22" d="M388.8 348a25.3 25.3 0 0143.1-26.5l-1 .6a24 24 0 10-41 25.2l-1.1.7z"/><path class="st22" d="M414.1 350.5a25.3 25.3 0 01-22.3-37.2l1.1.6a23.9 23.9 0 009.9 32.5 23.9 23.9 0 0032.5-9.9l1.1.6a25.3 25.3 0 01-22.3 13.4z"/><path class="st22" d="M422.2 351.9a25.3 25.3 0 01-25.3-25.1h1.2a24 24 0 0024 24h.1a24 24 0 0024-24.2h1.2a25.3 25.3 0 01-25.1 25.4l-.1-.1z"/><path class="st22" d="M413.8 355.7a25.4 25.4 0 01-25.3-25.2h1.2c.1 13.2 10.9 24 24.1 24h.1a24 24 0 0024-24.2h1.2a25.3 25.3 0 01-25.1 25.4h-.2z"/><path class="st22" d="M431 342.9l-1.1-.5a24 24 0 00-43.8-20.1l-1.1-.5a25.2 25.2 0 0133.5-12.5 25.3 25.3 0 0112.5 33.6z"/><path class="st22" d="M433 355l-1.1-.5a24 24 0 00-11.8-31.9 24 24 0 00-31.9 11.9l-1.1-.5a25.2 25.2 0 0145.9 21z"/><path class="st22" d="M433 360.4l-1.1-.5a24 24 0 00-11.8-31.9 24 24 0 00-31.9 11.9l-1.1-.5a25.2 25.2 0 0145.9 21z"/><path class="st22" d="M404.1 358.4c-7 0-13.9-2.9-18.9-8.5l.9-.8a24.2 24.2 0 0034 2 24.2 24.2 0 002-34l.9-.8a25.3 25.3 0 01-18.9 42.1z"/><path class="st22" d="M392.3 355a25.5 25.5 0 018.2-34.8 25.4 25.4 0 0134.8 8.2l-1 .6a24 24 0 00-41 25.3l-1 .7z"/><path class="st22" d="M426.5 365.6a25.2 25.2 0 01-8.4-49.1l.4 1.1a23.9 23.9 0 00-14.6 30.8 24.1 24.1 0 0030.8 14.6l.4 1.1c-2.9 1-5.8 1.5-8.6 1.5z"/><path class="st22" d="M427.6 356.3a25.3 25.3 0 01-8.5-49.2l.4 1.1a24.1 24.1 0 0016.2 45.4l.4 1.1a23.3 23.3 0 01-8.5 1.6z"/><path class="st22" d="M434.6 352.7a25.2 25.2 0 01-8.4-49.1l.4 1.1a23.9 23.9 0 00-14.6 30.8 24.1 24.1 0 0030.8 14.6l.4 1.1c-3 1-5.8 1.5-8.6 1.5z"/><path class="st22" d="M429.4 348.7a24.8 24.8 0 01-21.6-12.1 25.2 25.2 0 018.4-34.7l.6 1a24.3 24.3 0 00-10.9 14.9 24.3 24.3 0 0017.8 29.1c6.3 1.5 12.7.5 18.2-2.9l.6 1c-4 2.4-8.5 3.7-13.1 3.7z"/><path class="st22" d="M430 359.4a24.8 24.8 0 01-21.6-12.1 25.2 25.2 0 018.4-34.7l.6 1a24.3 24.3 0 00-10.9 14.9 24.3 24.3 0 0017.8 29.1c6.3 1.5 12.7.5 18.2-2.9l.6 1c-4 2.4-8.5 3.7-13.1 3.7z"/><path class="st22" d="M441.9 346l-1.1-.4a24.1 24.1 0 00-45.4-16.2l-1.1-.4a25.3 25.3 0 0147.6 17z"/><path class="st22" d="M444 352.2l-1.2-.2a24 24 0 00-47.5-7.7l-1.2-.2a25.3 25.3 0 0149.9 8.1z"/><path class="st22" d="M408.5 366.9a25.4 25.4 0 0112.3-45.1c6.7-.8 13.3 1 18.7 5.1l-.7.9A24.2 24.2 0 00405 332a24.2 24.2 0 004.3 33.8l-.8 1.1z"/><path class="st22" d="M429.6 351.5l-1.1-.4a24.1 24.1 0 00-45.4-16.2l-1.1-.4a25.4 25.4 0 0132.3-15.3 25.3 25.3 0 0115.3 32.3z"/><path class="st22" d="M429.6 359.4l-1.1-.4a24.1 24.1 0 00-27.8-31.7l-.3-1.2a25.4 25.4 0 0129.2 33.3z"/><path class="st22" d="M415.7 364.6a25.2 25.2 0 0110.3-42.9l.3 1.1a23.7 23.7 0 00-14.5 11.4c-3.2 5.6-4 12.1-2.2 18.3 1.2 4.3 3.6 8.2 6.9 11.3l-.8.8z"/><path class="st22" d="M411.6 362.2a25.3 25.3 0 0130.2-32.3l-.3 1.2a24 24 0 00-28.8 30.7l-1.1.4z"/><path class="st22" d="M442.4 354a24 24 0 00-8.4-16.4 23.8 23.8 0 00-29.9-1.1l-.7-1a25.2 25.2 0 0140.2 18.3l-1.2.2z"/><path class="st22" d="M428.9 353a24 24 0 00-8.4-16.4 23.8 23.8 0 00-29.9-1.1l-.7-1a25.2 25.2 0 0140.2 18.3l-1.2.2z"/><path class="st22" d="M421.1 359.6l-1.1-.4a24.1 24.1 0 00-29.2-30.4l-.3-1.2a25.3 25.3 0 0130.6 32z"/><path class="st22" d="M421.7 362.5a25.5 25.5 0 01-20.5-10.4c-4-5.5-5.6-12.1-4.5-18.8l1.2.2a24 24 0 1047.5 7.5l1.2.2a25.5 25.5 0 01-10.1 16.5 24.7 24.7 0 01-14.8 4.8z"/></g><path class="st23" d="M203.4 231s7.3-3.4 8.2-12.4c.9-9-.5-15.3 2-17 2.5-1.7 6.2-3.6 9.1 0 2.9 3.6.5 19.8-2.6 24.3a95.8 95.8 0 01-17.6 16.5c-3.5 2.1.9-11.4.9-11.4z"/><path class="st23" d="M204.6 264c0 3.8-13.6 8.9-13.6 5.2v-79.9c0-6.6 7.2-12.2 10.8-11.2 1.5.4 2.8 1.7 2.8 5.5V264z"/><path class="st23" d="M192.9 222.1s-9.1-.6-9.9-7.7c-.8-7.1.2-15-1.5-17.3-1.7-2.3-9.4-2.9-10.5 2.9-1.1 5.9.3 20.9 6.3 25.2a21 21 0 0015.6 3.6c2.7-.7 0-6.7 0-6.7z"/><path class="st17" d="M201.6 182.5c-1.4-1.2-5.6 3.1-5.1 6.2s1.5 28.3 4 28.7c2.5.4 3.3-33.1 1.1-34.9z"/><path class="st6" d="M234 266c0 4.4-16.4 8-36.6 8-20.2 0-36.6-3.6-36.6-8s16.4-8 36.6-8c20.2 0 36.6 3.6 36.6 8z"/></svg>